<svg xmlns="http://www.w3.org/2000/svg" viewBox="0 0 960 540" role="img" aria-labelledby="title desc">
  <title id="title">Architectural Drivers Mengarahkan Desain Sistem</title>
  <desc id="desc">Kebutuhan, kualitas, batasan, dan risiko mengarah ke keputusan arsitektur.</desc>
  <rect width="960" height="540" fill="#fff8f2"/>
  <circle cx="812" cy="120" r="86" fill="#bf5061" opacity=".12"/>
  <circle cx="140" cy="428" r="116" fill="#4f7b60" opacity=".12"/>
  <circle cx="480" cy="270" r="96" fill="#76263a"/>
  <text x="414" y="260" fill="#fff" font-family="Arial, Helvetica, sans-serif" font-size="26" font-weight="700">Architecture</text>
  <text x="428" y="294" fill="#fff" font-family="Arial, Helvetica, sans-serif" font-size="26" font-weight="700">Decision</text>
  <g fill="#fffdfc" stroke="#ead8d3" stroke-width="6">
    <rect x="98" y="92" width="230" height="82" rx="22"/>
    <rect x="98" y="366" width="230" height="82" rx="22"/>
    <rect x="632" y="92" width="230" height="82" rx="22"/>
    <rect x="632" y="366" width="230" height="82" rx="22"/>
  </g>
  <g fill="#76263a" font-family="Arial, Helvetica, sans-serif" font-size="24" font-weight="700">
    <text x="136" y="143">Requirement</text>
    <text x="168" y="417">Quality</text>
    <text x="682" y="143">Constraint</text>
    <text x="718" y="417">Risk</text>
  </g>
  <g stroke="#bf5061" stroke-width="10" stroke-linecap="round" fill="none">
    <path d="M330 134l82 78"/>
    <path d="M330 406l82-78"/>
    <path d="M630 134l-82 78"/>
    <path d="M630 406l-82-78"/>
  </g>
  <g fill="#4f7b60">
    <circle cx="412" cy="212" r="10"/>
    <circle cx="412" cy="328" r="10"/>
    <circle cx="548" cy="212" r="10"/>
    <circle cx="548" cy="328" r="10"/>
  </g>
</svg>
