<svg xmlns="http://www.w3.org/2000/svg" viewBox="0 0 960 540" role="img" aria-labelledby="title desc">
  <title id="title">Pola Arsitektur Kinerja Tinggi</title>
  <desc id="desc">Arsitektur performa tinggi dengan load balancer, cache, queue, service, dan database replica.</desc>
  <rect width="960" height="540" fill="#fff8f2"/>
  <circle cx="806" cy="108" r="94" fill="#4f7b60" opacity=".13"/>
  <circle cx="150" cy="432" r="110" fill="#bf5061" opacity=".12"/>
  <g stroke="#76263a" stroke-width="9" stroke-linecap="round" fill="none">
    <path d="M202 270h120M438 270h112M668 270h108"/>
    <path d="M552 238l58-64M552 302l58 64"/>
  </g>
  <rect x="88" y="210" width="126" height="120" rx="26" fill="#fffdfc" stroke="#ead8d3" stroke-width="6"/>
  <text x="118" y="278" fill="#76263a" font-family="Arial, Helvetica, sans-serif" font-size="26" font-weight="700">User</text>
  <rect x="318" y="194" width="130" height="152" rx="28" fill="#bf5061"/>
  <text x="346" y="260" fill="#fff" font-family="Arial, Helvetica, sans-serif" font-size="23" font-weight="700">Load</text>
  <text x="328" y="292" fill="#fff" font-family="Arial, Helvetica, sans-serif" font-size="23" font-weight="700">Balancer</text>
  <rect x="558" y="118" width="124" height="94" rx="22" fill="#e8f0e7" stroke="#4f7b60" stroke-width="6"/>
  <text x="586" y="174" fill="#4f7b60" font-family="Arial, Helvetica, sans-serif" font-size="24" font-weight="700">Cache</text>
  <rect x="558" y="224" width="124" height="94" rx="22" fill="#fffdfc" stroke="#ead8d3" stroke-width="6"/>
  <text x="586" y="280" fill="#76263a" font-family="Arial, Helvetica, sans-serif" font-size="24" font-weight="700">Service</text>
  <rect x="558" y="330" width="124" height="94" rx="22" fill="#fde7df" stroke="#bf5061" stroke-width="6"/>
  <text x="588" y="386" fill="#76263a" font-family="Arial, Helvetica, sans-serif" font-size="24" font-weight="700">Queue</text>
  <g fill="#fffdfc" stroke="#ead8d3" stroke-width="6">
    <rect x="778" y="170" width="112" height="74" rx="20"/>
    <rect x="778" y="296" width="112" height="74" rx="20"/>
  </g>
  <g fill="#76263a" font-family="Arial, Helvetica, sans-serif" font-size="21" font-weight="700">
    <text x="804" y="214">DB 1</text>
    <text x="804" y="340">DB 2</text>
  </g>
  <path d="M834 244v52" stroke="#4f7b60" stroke-width="8" stroke-linecap="round" stroke-dasharray="12 12"/>
</svg>
